<svg width="510" height="494" viewBox="0 0 510 494" fill="none" xmlns="http://www.w3.org/2000/svg">
<path d="M221.248 12.6217C212.869 19.4768 201.444 29.1609 195.786 33.9486C190.237 38.7362 178.267 48.8556 169.127 56.3636C140.837 79.8666 138.007 82.5869 139.096 85.416C139.64 86.7217 139.748 89.8772 139.531 92.2711C139.096 96.297 139.313 96.8411 142.578 98.7997C144.536 99.9966 147.365 101.302 148.889 101.738C150.412 102.173 154.111 103.587 157.049 105.002C160.096 106.308 178.05 113.924 197.092 121.759C230.932 135.904 231.802 136.122 233.978 134.272C235.175 133.075 238.44 131.008 241.16 129.484L246.274 126.764L246.6 65.286L246.818 3.80804L243.336 2.61112C241.378 1.95826 238.984 1.08778 238.113 0.652534C237.025 0.217292 231.367 4.24328 221.248 12.6217Z" fill="#7F10AE"/>
<path d="M270.214 0.979234C269.888 1.52329 268.147 2.28496 266.406 2.7202L263.142 3.48188V65.2863V127.2L268.147 129.702C270.867 131.008 273.805 133.075 274.676 134.272C276.09 136.34 276.743 136.231 296.002 128.396C306.992 124.044 325.49 116.318 337.35 111.313C349.102 106.308 359.221 102.282 359.874 102.282C360.527 102.282 363.139 101.303 365.641 99.9969L370.32 97.7119L370.429 89.9863L370.538 82.1519L360.092 73.2295C354.325 68.4418 344.532 60.1722 338.221 55.0581C331.91 49.8352 322.879 42.2185 318.091 38.1925C313.303 34.0577 306.992 28.7259 303.946 26.3321C301.008 23.8295 292.629 16.9744 285.448 10.9898C278.266 5.00523 272.064 -6.12394e-05 271.629 -6.12394e-05C271.194 -6.12394e-05 270.65 0.435181 270.214 0.979234Z" fill="#7F10AE"/>
<path d="M129.849 115.448C128.108 117.298 125.278 119.474 123.646 120.344L120.6 121.977V156.143C120.6 188.46 120.708 190.418 122.558 189.439C123.537 188.895 135.398 184.869 148.89 180.625C180.01 170.724 203.404 163.107 215.809 158.537C230.607 153.205 230.281 152.879 202.208 141.454C165.647 126.547 136.486 114.251 135.398 113.163C133.875 111.64 133.439 111.748 129.849 115.448Z" fill="#7F10AE"/>
<path d="M367.599 116.427C360.417 119.583 354.324 122.085 311.017 139.495C297.525 144.935 285.882 149.832 285.229 150.376C284.467 151.029 283.814 152.443 283.814 153.531C283.814 155.164 292.084 158.21 334.194 171.92C361.832 180.952 385.335 188.786 386.314 189.33C387.402 189.983 388.49 190.418 388.817 190.418C389.143 190.418 389.361 174.967 389.361 156.143V121.976L386.967 120.671C385.552 119.909 382.832 117.95 380.874 116.318C378.915 114.577 376.739 113.163 375.977 113.271C375.215 113.271 371.516 114.686 367.599 116.427Z" fill="#7F10AE"/>
<path d="M93.7226 123.391C92.0904 125.458 83.0592 135.578 73.7014 146.023C38.9909 184.542 6.78292 220.667 3.62741 224.585C1.88644 226.761 0.254282 228.828 0.0366607 229.046C-0.616203 229.699 7.43578 227.087 25.3895 220.994C34.4208 217.838 50.7424 212.398 61.8411 208.916C72.9398 205.325 86.8675 200.864 92.7433 198.905L103.516 195.315L103.298 158.863C103.08 126.437 102.863 122.303 101.339 120.997C98.5103 118.93 97.0957 119.365 93.7226 123.391Z" fill="#7F10AE"/>
<path d="M408.075 120.997L405.682 122.194L405.899 158.754L406.226 195.315L410.578 196.729C412.972 197.491 436.149 205.108 462.046 213.704C487.834 222.3 509.052 229.155 509.052 228.828C509.052 228.176 501.109 218.709 493.274 210.113C479.564 194.879 469.989 184.216 464.875 178.231C461.937 174.858 452.905 164.848 444.745 155.925C436.584 147.112 426.138 135.36 421.459 130.028C416.78 124.588 412.428 120.127 411.775 120.018C411.122 119.909 409.49 120.344 408.075 120.997Z" fill="#7F10AE"/>
<path d="M174.461 189.765L121.144 207.393V248.523V289.654L150.522 299.882C166.735 305.54 185.015 311.96 191.326 314.136C197.637 316.312 206.451 319.576 210.912 321.535C215.374 323.385 221.902 325.887 225.275 326.976L231.477 329.043L235.612 325.235C237.897 323.167 241.379 320.773 243.229 320.012L246.711 318.597L246.82 255.813C246.82 221.32 246.493 190.745 246.167 187.916C245.514 183.346 244.97 182.475 241.488 180.625C239.312 179.537 236.156 177.143 234.415 175.294C232.566 173.444 230.389 171.92 229.519 172.029C228.54 172.029 203.84 179.972 174.461 189.765Z" fill="#7F10AE"/>
<path d="M274.458 175.293C272.717 177.143 269.453 179.646 267.276 180.734L263.142 182.801V250.59V318.379L266.841 320.12C268.8 321.1 272.282 323.493 274.458 325.343L278.375 328.825L289.039 325.017C294.805 322.949 308.189 318.162 318.635 314.571C329.081 310.871 338.656 307.39 339.853 306.845C341.05 306.301 347.905 303.799 355.087 301.405C368.253 296.835 371.843 295.638 382.833 291.721L388.818 289.653L389.144 248.958L389.471 208.154L335.283 190.092C305.469 180.081 280.334 171.92 279.354 171.92C278.484 171.92 276.308 173.444 274.458 175.293Z" fill="#7F10AE"/>
<path d="M101.557 213.812C101.013 214.03 91.6554 216.968 80.8831 220.341C70.1109 223.823 54.2245 228.937 45.5197 231.766C36.8148 234.595 25.825 237.968 21.0373 239.383C10.5915 242.212 1.669 246.02 2.75711 247.108C3.7364 247.979 17.1201 253.093 30.2862 257.663C35.4003 259.404 47.1518 263.648 56.4007 266.912C65.6496 270.285 80.1215 275.399 88.4999 278.337L103.733 283.669V248.414C103.733 229.046 103.516 213.268 103.189 213.377C102.863 213.377 102.21 213.595 101.557 213.812Z" fill="#7F10AE"/>
<path d="M405.466 248.523C405.248 268 405.14 283.996 405.14 283.996C405.14 283.996 440.83 271.482 459.545 264.954C477.39 258.643 498.826 251.026 505.028 248.632C506.007 248.197 506.878 247.544 506.878 247.109C506.878 246.238 497.52 241.559 495.779 241.559C495.017 241.559 482.939 237.86 468.794 233.29C431.581 221.321 410.907 214.683 408.186 213.922L405.793 213.16L405.466 248.523Z" fill="#7F10AE"/>
<path d="M1.45138 267.565C1.12495 268.218 8.8505 277.14 18.6435 287.477C28.4364 297.814 42.7994 313.374 50.4162 322.079C58.1417 330.784 67.8259 341.556 72.0695 346.017C76.3131 350.587 83.821 358.748 88.8263 364.297C95.7902 372.023 98.4016 374.199 100.469 374.09C101.884 373.982 102.754 373.438 102.536 373.002C102.21 372.567 102.428 372.132 103.08 372.132C104.277 372.132 103.516 302.384 102.319 301.296C101.884 300.861 93.7228 297.814 84.1474 294.55C74.5721 291.177 53.5717 283.886 37.3589 278.228C4.28046 266.694 2.43068 266.15 1.45138 267.565Z" fill="#7F10AE"/>
<path d="M486.746 273.005C476.626 276.487 463.351 281.166 457.367 283.451C451.382 285.627 438.651 290.089 429.076 293.353C419.501 296.617 410.36 299.773 408.728 300.426L405.682 301.623V336.877V372.132L408.62 373.329C411.34 374.308 411.993 374.09 414.822 370.826C436.257 346.779 479.129 299.446 491.316 286.498C504.917 272.026 509.052 266.477 506.114 266.586C505.57 266.586 496.974 269.523 486.746 273.005Z" fill="#7F10AE"/>
<path d="M120.6 341.121V374.308L123.102 375.287C124.517 375.831 127.237 377.681 129.196 379.313C132.678 382.142 133.004 382.251 137.683 381.054C140.403 380.292 149.543 377.028 158.03 373.764C183.166 364.189 219.944 350.587 222.99 349.826C225.167 349.281 225.819 348.411 225.928 346.235C225.928 343.515 225.384 343.079 216.571 340.468C211.348 338.836 190.238 331.654 169.564 324.255C132.678 311.198 122.993 307.933 121.47 307.933C120.926 307.933 120.6 322.84 120.6 341.121Z" fill="#7F10AE"/>
<path d="M376.848 311.633C370.863 313.701 353.018 319.794 337.132 325.344C321.245 330.893 302.747 337.204 296.11 339.38C284.25 343.189 283.814 343.406 283.814 346.453C283.814 348.194 284.141 349.391 284.467 348.955C285.229 348.194 292.084 350.588 312.105 358.531C320.81 361.904 331.038 365.93 334.955 367.344C338.873 368.868 345.945 371.588 350.733 373.438C355.521 375.396 362.92 378.226 367.272 379.858L375.107 382.687L380.221 379.096C383.05 377.137 386.205 375.179 387.293 374.852C389.252 374.2 389.361 372.35 389.361 341.012C389.361 322.841 389.034 307.934 388.599 308.043C388.055 308.043 382.832 309.675 376.848 311.633Z" fill="#7F10AE"/>
<path d="M274.023 366.147C272.064 368.215 268.691 370.5 266.732 371.152L263.142 372.349V430.345C263.142 487.797 263.142 488.45 265.318 489.103C266.624 489.538 268.473 490.844 269.67 492.041C271.738 494.217 271.738 494.217 290.997 478.113C301.661 469.191 316.676 456.569 324.511 450.149C332.345 443.729 342.465 435.351 346.926 431.651C351.387 427.952 358.677 422.076 363.03 418.594C369.45 413.48 370.755 411.956 370.32 409.889C369.994 408.583 369.558 405.319 369.341 402.599L368.906 397.702L357.154 393.023C337.677 385.298 294.588 368.867 287.624 366.474C284.033 365.277 280.66 363.753 280.116 363.318C278.484 361.795 277.94 362.012 274.023 366.147Z" fill="#7F10AE"/>
<path d="M210.367 371.153C190.129 378.878 176.31 384.101 155.201 391.827C148.454 394.329 142.47 396.723 141.817 397.267C141.273 397.92 140.729 399.77 140.62 401.511C140.511 403.252 140.185 406.299 139.749 408.366C139.097 411.957 139.314 412.174 151.827 422.403C188.823 452.543 201.663 463.315 220.596 479.637C229.845 487.471 237.897 494 238.549 494C238.876 494 240.073 493.13 241.27 491.933C242.358 490.844 243.881 489.756 244.643 489.43C245.622 489.104 246.057 476.481 246.493 437.418C246.71 409.019 246.71 382.687 246.275 378.987C245.622 372.894 245.296 372.241 242.575 371.262C240.943 370.609 237.788 368.65 235.72 366.8C233.544 364.951 231.368 363.427 230.933 363.536C230.389 363.645 221.14 367.018 210.367 371.153Z" fill="#7F10AE"/>
</svg>
